<svg id="fb76d1e2-7adf-4231-8374-30e18c2249f7" data-name="Layer 1" xmlns="http://www.w3.org/2000/svg" viewBox="0 0 50 50"><title>Calendar</title><path d="M44.73,4.63h-4.1V9.31a3.58,3.58,0,1,1-7.17,0V4.63H16.59V9.31a3.58,3.58,0,1,1-7.17,0V4.63H5.27A4.21,4.21,0,0,0,1.06,8.89V45.74A4.21,4.21,0,0,0,5.27,50H44.73a4.21,4.21,0,0,0,4.21-4.26V8.89A4.21,4.21,0,0,0,44.73,4.63ZM46.5,45.74a1.76,1.76,0,0,1-1.77,1.79H5.27A1.76,1.76,0,0,1,3.5,45.74V17.35h43V45.74H46.5ZM13,11a1.76,1.76,0,0,0,1.77-1.79V1.79a1.77,1.77,0,1,0-3.53,0V9.25A1.76,1.76,0,0,0,13,11Zm24,0a1.76,1.76,0,0,0,1.77-1.79V1.79a1.77,1.77,0,1,0-3.53,0V9.25A1.83,1.83,0,0,0,37,11Zm-.4,27.27v6.91h6.6V38.32ZM16.86,19.64v6.91h6.6V19.64Zm9.95,0v6.91h6.6V19.64Zm9.85,0v6.91h6.6V19.64ZM7,28.93v6.91h6.6V28.93Zm9.87,0v6.91h6.6V28.93Zm9.95,0v6.91h6.6V28.93Zm9.85,0v6.91h6.6V28.93ZM7,38.32v6.91h6.6V38.32Zm9.87,0v6.91h6.6V38.32Zm9.95,0v6.91h6.6V38.32Z"/></svg>