<svg id="e1ea957d-283d-4a4f-bccb-528065c3cadd" data-name="Layer 1" xmlns="http://www.w3.org/2000/svg" viewBox="0 0 30 31"><defs><style>.\30 2bddb85-95c4-441b-b4f5-6f7c2cd1d921{fill:#ba8748;}</style></defs><title>Facebook</title><g id="d5e2f947-a69f-4ccc-a065-482f2dd397fd" data-name="Page-1"><g id="6934d3e8-e863-454f-bd61-272c367f7a17" data-name="Treatments---Cosmetic"><g id="481f3f3d-856b-4315-81c4-9b62e2af350d" data-name="Footer"><g id="c5c6da5c-56f6-4fb7-a4a9-232780b55cd5" data-name="Group-4"><g id="1ef2ddc2-7365-4424-ac01-7a2132674ebc" data-name="icons"><g id="3986991f-dc72-4d3d-a3e0-5a7b8264cb26" data-name="Group-3"><path id="4981e741-3e40-4bd6-92b1-d09cdb7577fe" data-name="Combined-Shape" class="02bddb85-95c4-441b-b4f5-6f7c2cd1d921" d="M18.43,30.38V20.76h1.13c.62,0,1.25,0,1.87,0,.1,0,.27-.12.28-.2.17-1.2.32-2.39.48-3.63H18.48c0-1.06-.06-2.08,0-3.09a1.17,1.17,0,0,1,1.22-1.14c.58-.06,1.17-.05,1.76-.07h.83V9.2c-.18,0-.37-.06-.55-.07a11.94,11.94,0,0,0-4.13.16,4.29,4.29,0,0,0-3.11,3.86c-.08,1.1-.05,2.2-.08,3.31,0,.14,0,.28,0,.45H11.16v3.83h3.25v9.64H2.88A2.88,2.88,0,0,1,0,27.49V3.26A2.88,2.88,0,0,1,2.88.38H27.12A2.88,2.88,0,0,1,30,3.26V27.49a2.88,2.88,0,0,1-2.88,2.88Z"/></g></g></g></g></g></g></svg>