<svg id="e905157e-cedb-4e64-99d6-e7addde1c279" data-name="Layer 1" xmlns="http://www.w3.org/2000/svg" xmlns:xlink="http://www.w3.org/1999/xlink" viewBox="0 0 26 31"><defs><style>.\35 0629938-992a-4384-b983-d7c389d75c64{fill:#fff;}.c69ad796-00a1-421a-8aca-9ce8e1142061{mask:url(#e9a78998-a74b-4e6d-8ea1-6fbb783fa148);}.\37 6891a2e-093a-4383-ad52-2b7d102b197e{fill:#b98546;}</style><mask id="e9a78998-a74b-4e6d-8ea1-6fbb783fa148" x="-3" y="-0.41" width="32.86" height="32.85" maskUnits="userSpaceOnUse"><g id="a0c6780e-3848-40f9-86b1-5dfdc767f815" data-name="mask-2"><polygon id="6571a74d-0b81-4ac7-9af9-73b6b49c9972" data-name="path-1" class="50629938-992a-4384-b983-d7c389d75c64" points="2.34 -0.41 29.86 4.94 24.52 32.43 -3 27.09 2.34 -0.41"/></g></mask></defs><title>FooterPhone</title><g id="66913833-5cea-409c-a1ba-83d9021014ee" data-name="Page-1"><g id="2ee90a69-631f-414a-aad9-84c140016c0c" data-name="Treatments---Cosmetic"><g id="bf984918-555d-434b-bdfe-befc28c6495e" data-name="Footer"><g id="c80cff1a-7f82-445b-b194-9443c69d4747" data-name="Group-4"><g id="3b10cec0-3274-492e-a4e9-7952fceb1df1" data-name="icons"><g id="d9640912-23b6-4204-8e2f-80ad8d26aee1" data-name="Contact"><g id="3b0ce384-a32b-4017-a1df-377f99cf61ff" data-name="Group"><g class="c69ad796-00a1-421a-8aca-9ce8e1142061"><path id="f67b419f-04aa-4c0d-8dbd-4bd4e8c4cad8" data-name="Fill-1" class="76891a2e-093a-4383-ad52-2b7d102b197e" d="M21.38,20.26a2.8,2.8,0,0,0-2.09-.77,3.14,3.14,0,0,0-1.52.76,3.52,3.52,0,0,1-3.27.85,4.61,4.61,0,0,1-2.38-2l-2.08-3.08a4.61,4.61,0,0,1-.93-2.94,3.51,3.51,0,0,1,2-2.71A3.15,3.15,0,0,0,12.4,9.28a2.8,2.8,0,0,0,.07-2.22c-.85-1.73-1.71-3.51-2.6-5.22A2.43,2.43,0,0,0,7.63.71a4.55,4.55,0,0,0-2,.83C3.08,3.2.66,5.69.57,9.3.51,12.22,2,15.35,4.4,19l2.91,4.31c2.45,3.62,4.8,6.14,7.53,7.18s6.07.32,9.1-1.81a4.54,4.54,0,0,0,1.51-1.52,2.43,2.43,0,0,0-.2-2.5C24,23.17,22.67,21.7,21.38,20.26Z"/></g></g></g></g></g></g></g></g></svg>