<?xml version="1.0" encoding="UTF-8"?>
<svg width="29px" height="30px" viewBox="0 0 29 30" version="1.1" xmlns="http://www.w3.org/2000/svg" xmlns:xlink="http://www.w3.org/1999/xlink">
    <!-- Generator: Sketch 50.2 (55047) - http://www.bohemiancoding.com/sketch -->
    <title>Fill 1</title>
    <desc>Created with Sketch.</desc>
    <defs></defs>
    <g id="Page-1" stroke="none" stroke-width="1" fill="none" fill-rule="evenodd">
        <g id="Treatments---Cosmetic" transform="translate(-1258.000000, -2837.000000)" fill="#BA8748">
            <g id="Footer" transform="translate(0.000000, 2756.000000)">
                <g id="Group-4" transform="translate(0.000000, 49.000000)">
                    <g id="icons" transform="translate(1119.000000, 30.000000)">
                        <path d="M154.426206,29.1357737 L158.38559,29.1357737 L158.38559,24.989264 L154.426206,24.989264 L154.426206,29.1357737 Z M148.45932,29.1357737 L152.418704,29.1357737 L152.418704,24.989264 L148.45932,24.989264 L148.45932,29.1357737 Z M142.535118,29.1357737 L146.494503,29.1357737 L146.494503,24.989264 L142.535118,24.989264 L142.535118,29.1357737 Z M160.334454,23.503902 L164.293839,23.503902 L164.293839,19.3569612 L160.334454,19.3569612 L160.334454,23.503902 Z M154.426206,23.503902 L158.38559,23.503902 L158.38559,19.3569612 L154.426206,19.3569612 L154.426206,23.503902 Z M148.45932,23.503902 L152.418704,23.503902 L152.418704,19.3569612 L148.45932,19.3569612 L148.45932,23.503902 Z M142.535118,23.503902 L146.494503,23.503902 L146.494503,19.3569612 L142.535118,19.3569612 L142.535118,23.503902 Z M160.350407,17.9332557 L164.309792,17.9332557 L164.309792,13.7863148 L160.350407,13.7863148 L160.350407,17.9332557 Z M154.44259,17.9332557 L158.401975,17.9332557 L158.401975,13.7863148 L154.44259,13.7863148 L154.44259,17.9332557 Z M148.475704,17.9332557 L152.435088,17.9332557 L152.435088,13.7863148 L148.475704,13.7863148 L148.475704,17.9332557 Z M160.350407,29.1357737 L164.309792,29.1357737 L164.309792,24.989264 L160.350407,24.989264 L160.350407,29.1357737 Z M160.589273,8.6248437 C161.18083,8.6248437 161.648213,8.151425 161.648213,7.55210624 L161.648213,3.07273746 C161.648213,2.4734187 161.18083,2 160.589273,2 C159.997284,2 159.529901,2.4734187 159.529901,3.07273746 L159.529901,7.55210624 C159.561376,8.151425 160.028759,8.6248437 160.589273,8.6248437 Z M146.165524,8.6248437 C146.757082,8.6248437 147.224464,8.151425 147.224464,7.55210624 L147.224464,3.07273746 C147.224464,2.4734187 146.757082,2 146.165524,2 C145.573535,2 145.106153,2.4734187 145.106153,3.07273746 L145.106153,7.55210624 C145.106153,8.151425 145.573535,8.6248437 146.165524,8.6248437 Z M165.199715,4.7762687 L162.739059,4.7762687 L162.739059,7.58358125 C162.739059,8.78264994 161.772819,9.76053119 160.589273,9.76053119 C159.405295,9.76053119 158.439486,8.78264994 158.439486,7.58358125 L158.439486,4.7762687 L148.314879,4.7762687 L148.314879,7.58358125 C148.314879,8.78264994 147.349071,9.76053119 146.165093,9.76053119 C144.981546,9.76053119 144.015738,8.78264994 144.015738,7.58358125 L144.015738,4.7762687 L141.523606,4.7762687 C140.121459,4.7762687 139,5.91195619 139,7.33134998 L139,29.4449187 C139,30.8643125 140.121459,32 141.523606,32 L165.199715,32 C166.601863,32 167.723322,30.8643125 167.723322,29.4449187 L167.723322,7.33134998 C167.723322,5.91152503 166.601863,4.7762687 165.199715,4.7762687 Z" id="Fill-1"></path>
                    </g>
                </g>
            </g>
        </g>
    </g>
</svg>