<?xml version="1.0" encoding="UTF-8"?>
<svg width="418px" height="110px" viewBox="0 0 418 110" version="1.1" xmlns="http://www.w3.org/2000/svg" xmlns:xlink="http://www.w3.org/1999/xlink">
    <!-- Generator: Sketch 50.2 (55047) - http://www.bohemiancoding.com/sketch -->
    <title>Header</title>
    <desc>Created with Sketch.</desc>
    <defs>
        <polygon id="path-1" points="0.000564210526 0.333423077 133.794627 0.333423077 133.794627 109.999715 0.000564210526 109.999715"></polygon>
    </defs>
    <g id="Page-1" stroke="none" stroke-width="1" fill="none" fill-rule="evenodd">
        <g id="Munkel" transform="translate(-511.000000, -54.000000)">
            <g id="Header" transform="translate(511.000000, 54.000000)">
                <g id="Logo-Text">
                    <path d="M66.0377636,34.3961371 C66.0377636,37.3843917 64.9789756,37.9724076 62.3833278,38.825385 L60,39.6259368 L60,40 L76.9476398,40 L76.9476398,39.6259368 L74.564312,38.825385 C71.9700703,37.9724076 70.9098761,37.3843917 70.9098761,34.3961371 L70.9098761,21.6935755 L91.0901239,21.6935755 L91.0901239,34.3961371 C91.0901239,37.3843917 90.0299297,37.9724076 87.435688,38.825385 L85.0523602,39.6259368 L85.0523602,40 L102,40 L102,39.6259368 L99.6166722,38.825385 C97.0210244,37.9724076 95.9622364,37.3843917 95.9622364,34.3961371 L95.9622364,8.13803647 C95.9622364,4.61560834 97.0210244,4.02759238 99.6166722,3.17461501 L102,2.37406316 L102,2 L85.0523602,2 L85.0523602,2.37406316 L87.435688,3.17461501 C90.0299297,4.02759238 91.0901239,4.61560834 91.0901239,8.13803647 L91.0901239,19.2380775 L70.9098761,19.2380775 L70.9098761,8.13803647 C70.9098761,4.61560834 71.9700703,4.02759238 74.564312,3.17461501 L76.9476398,2.37406316 L76.9476398,2 L60,2 L60,2.37406316 L62.3833278,3.17461501 C64.9789756,4.02759238 66.0377636,4.61560834 66.0377636,8.13803647 L66.0377636,34.3961371 Z" id="Fill-1" fill="#F1F2E9"></path>
                    <path d="M140,40 L140,39.6273537 L138.672941,39.1994482 C137.660706,38.8792274 136.436706,38.02625 136.119059,36.4251464 L134.256941,27.2974384 C133.459294,23.4547895 131.279529,21.2132443 125.536471,20.4126925 L125.536471,20.1463142 C130.747294,19.079384 135.692706,17.1042172 135.692706,10.9123383 C135.692706,3.44099333 128.727059,2 122.664941,2 L104,2 L104,2.37406316 L106.392941,3.17461501 C108.997647,4.02759238 110.062118,4.61560834 110.062118,8.13803647 L110.062118,34.3961371 C110.062118,37.3858086 108.997647,37.9724076 106.392941,38.825385 L104,39.6273537 L104,40 L121.016,40 L121.016,39.6273537 L118.623059,38.825385 C116.016941,37.9724076 114.953882,37.3858086 114.953882,34.3961371 L114.953882,21.6935755 L121.229176,21.6935755 C124.579294,21.6935755 127.822118,22.121481 128.727059,27.3512808 L130.323765,36.5852567 C130.747294,39.1470226 131.012706,40 132.874824,40 L140,40 Z M121.548235,19.2394944 L114.953882,19.2394944 L114.953882,8.08419404 C114.953882,6.74946866 115.007529,5.4685857 115.113412,4.13527723 L119.474353,4.13527723 C125.057882,4.13527723 129.843765,5.41616018 129.843765,11.2864014 C129.843765,15.9296021 126.493647,19.2394944 121.548235,19.2394944 Z" id="Fill-3" fill="#F1F2E9"></path>
                    <path d="M149.055915,34.3961371 C149.055915,37.3843917 147.993944,37.9724076 145.390493,38.825385 L143,39.6259368 L143,40 L160,40 L160,39.6259368 L157.608097,38.825385 C155.006056,37.9724076 153.942675,37.3843917 153.942675,34.3961371 L153.942675,8.13803647 C153.942675,4.61560834 155.006056,4.02759238 157.608097,3.17461501 L160,2.37406316 L160,2 L143,2 L143,2.37406316 L145.390493,3.17461501 C147.993944,4.02759238 149.055915,4.61560834 149.055915,8.13803647 L149.055915,34.3961371 Z" id="Fill-5" fill="#F1F2E9"></path>
                    <path d="M163,41 L163.371769,41 C163.73933,40.1913843 164.373442,39.3283838 165.219392,39.3283838 C167.121729,39.3283838 169.077375,41 175.101441,41 C184.244159,41 189,35.4455973 189,30.1101649 C189,17.1723139 168.601791,20.2980071 168.601791,10.6490035 C168.601791,5.68853984 172.882048,3.15678557 177.162305,3.15678557 C182.922625,3.15678557 184.930179,5.74292461 186.992446,10.918065 L187.361409,10.918065 L187.361409,1 L187.045756,1 C186.779205,2.0247236 185.828036,2.50846184 185.193924,2.50846184 C184.71834,2.50846184 183.716668,2.13206197 182.235202,1.75279974 C180.80845,1.37639987 178.959424,1 176.686721,1 C170.240382,1 163.73933,4.82697055 163.73933,11.6737271 C163.73933,24.5042399 183.820482,20.6228845 183.820482,31.0790726 C183.820482,35.3396901 180.544704,38.8417832 174.467329,38.8417832 C168.815033,38.8417832 165.748287,36.2556442 163.371769,30.2189345 L163,30.2189345 L163,41 Z" id="Fill-7" fill="#F1F2E9"></path>
                    <g id="Group-11">
                        <mask id="mask-2" fill="white">
                            <use xlink:href="#path-1"></use>
                        </mask>
                        <g id="Clip-10"></g>
                        <path d="M133.794627,109.999715 L133.794627,109.355062 L129.681533,107.971831 C125.201701,106.4961 123.373659,105.481446 123.373659,100.318523 L123.411743,44.3474846 L113.229154,44.3474846 L88.7353642,93.4023692 L66.4335326,44.3474846 L54.7755326,44.3474846 L54.7656589,57.5792538 C52.6174274,61.0487154 46.3349432,65.0646385 35.5542905,65.0646385 C18.2781642,65.0646385 10.7854484,51.6023308 10.7854484,34.7274846 C10.7854484,17.4840615 18.2781642,4.02175385 35.5542905,4.02175385 C46.3377642,4.02175385 50.9995537,8.17144615 55.2029221,17.3929846 L55.8418905,17.3929846 L55.8418905,0.333138462 L55.2029221,0.333138462 C55.0195537,1.34779231 54.0138484,2.82352308 52.9178695,2.82352308 C52.0955326,2.82352308 50.0841221,2.17744615 47.1601011,1.53279231 C44.23608,0.980638462 40.3966274,0.333138462 35.9182063,0.333138462 C15.0805011,0.333138462 0.000564210526,14.6265231 0.000564210526,34.1739077 C0.000564210526,54.4612923 13.4358274,68.7546769 35.9182063,68.7546769 C44.5097221,68.7546769 50.1772168,66.5403692 52.6442274,66.5403692 C53.6118484,66.5403692 54.2522274,66.8150231 54.7600168,67.1764846 L54.7346274,100.318523 C54.7346274,105.481446 52.9065853,106.4961 48.4281642,107.971831 L44.31648,109.355062 L44.31648,109.999715 L69.9076589,109.999715 L69.9076589,109.355062 L65.7959747,107.971831 C61.3161432,106.4961 59.4881011,105.481446 59.4881011,100.318523 L59.4881011,52.3693692 L59.6700589,52.3693692 L83.3415116,104.007138 C84.0749853,105.850023 84.8973221,108.065754 85.2626484,109.999715 L86.9975958,109.999715 C87.8199326,107.419677 89.0104168,104.375715 90.19808,101.885331 L114.782143,52.3693692 L114.965512,52.3693692 L114.965512,100.318523 C114.965512,105.481446 113.137469,106.4961 108.660459,107.971831 L104.547364,109.355062 L104.547364,109.999715 L133.794627,109.999715 Z" id="Fill-9" fill="#BA8748" mask="url(#mask-2)"></path>
                    </g>
                    <path d="M357,72 C357,67.8583691 354.982767,61 345.265818,61 L335,61 L335,61.2174535 L336.376415,61.6795422 C337.873071,62.1745351 338.482767,62.5135908 338.482767,64.5536481 L338.482767,79.7567954 C338.482767,81.4864092 337.873071,81.8254649 336.376415,82.3204578 L335,82.7825465 L335,83 L345.083333,83 C353.425283,83 357,77.1287554 357,72 M353.392747,71.7224607 C353.392747,77.0672389 351.072788,81.5779685 345.175283,81.5779685 L341.38696,81.5779685 C341.326132,80.8054363 341.293596,80.0658083 341.293596,79.2932761 L341.293596,64.5221745 C341.293596,63.7496423 341.326132,63.0085837 341.38696,62.2360515 L344.196373,62.2360515 C350.064172,62.2360515 353.392747,65.4177396 353.392747,71.7224607" id="Fill-12" fill="#F1F2E9"></path>
                    <path d="M382,72 C382,67.8583691 379.982638,61 370.266478,61 L360,61 L360,61.2174535 L361.376503,61.6795422 C362.871841,62.1745351 363.482991,62.5135908 363.482991,64.5536481 L363.482991,79.7567954 C363.482991,81.4864092 362.871841,81.8254649 361.376503,82.3204578 L360,82.7825465 L360,83 L370.082567,83 C378.426468,83 382,77.1287554 382,72 M378.39393,71.7224607 C378.39393,77.0672389 376.073822,81.5779685 370.175937,81.5779685 L366.387371,81.5779685 C366.326538,80.8054363 366.294,80.0658083 366.294,79.2932761 L366.294,64.5221745 C366.294,63.7496423 366.326538,63.0085837 366.387371,62.2360515 L369.196965,62.2360515 C375.065141,62.2360515 378.39393,65.4177396 378.39393,71.7224607" id="Fill-14" fill="#F1F2E9"></path>
                    <path d="M134.091603,67.8192507 C134.091603,76.9362448 137.458015,83 149.053908,83 C158.245221,83 163.962305,78.225042 163.962305,67.8192507 L163.962305,50.1691375 C163.962305,46.6302855 165.030534,46.0934054 167.649328,45.1819908 L170,44.3773826 L170,44 L155.091603,44 L155.091603,44.3773826 L157.496183,45.1819908 C160.114977,46.0407142 161.183206,46.6302855 161.183206,50.1691375 L161.183206,67.9787483 C161.183206,76.4534799 156.90887,80.2102169 150.122137,80.2102169 C144.084442,80.2102169 139.007161,77.0444753 139.007161,67.9787483 L139.007161,50.1691375 C139.007161,46.6302855 140.076809,46.0407142 142.694184,45.1819908 L145.098764,44.3773826 L145.098764,44 L128,44 L128,44.3773826 L130.40458,45.1819908 C133.023374,46.0407142 134.091603,46.6302855 134.091603,50.1691375 L134.091603,67.8192507 Z" id="Fill-16" fill="#F1F2E9"></path>
                    <path d="M177.11515,76.8336402 C177.11515,79.8636866 176.042791,80.4582075 173.412451,81.3241402 L171,82.1355034 L171,82.5146182 L185.696867,82.5146182 L185.696867,82.1355034 L183.284416,81.3241402 C180.654076,80.4582075 179.581717,79.8636866 179.581717,76.8336402 L179.581717,49.1927241 L179.68995,49.1927241 L204.472399,83 L206.88485,83 L206.88485,50.2209294 C206.88485,46.6509316 207.958633,46.0564106 210.587549,45.1904779 L213,44.3791148 L213,44 L197.981283,44 L197.981283,44.3791148 L200.396582,45.1904779 C203.02265,46.0564106 204.096433,46.6509316 204.096433,50.2209294 L204.096433,73.5350541 L203.989624,73.5350541 L182.640716,44 L171,44 L171,44.3791148 L173.412451,45.1904779 C176.042791,46.0564106 177.11515,46.6509316 177.11515,50.2209294 L177.11515,76.8336402 Z" id="Fill-18" fill="#F1F2E9"></path>
                    <path d="M221.090337,76.3949292 C221.090337,79.3844892 220.02233,79.9710664 217.40408,80.8254288 L215,81.6259508 L215,82 L232.09521,82 L232.09521,81.6259508 L229.689712,80.8254288 C227.074299,79.9710664 226.004873,79.3844892 226.004873,76.3949292 L226.004873,62.0393736 L241.017966,77.8897092 C241.444885,78.316182 242.13987,78.904176 242.13987,79.4907532 C242.13987,80.2912752 240.964069,80.6653244 239.789686,81.0379567 L237.972797,81.6259508 L237.972797,82 L254,82 L254,81.6259508 L252.503655,81.0917972 C251.329272,80.6653244 249.939302,79.9710664 246.521111,76.3949292 L231.241372,60.3844892 L244.223406,48.9108128 C246.627487,46.7756152 247.589119,46.295302 250.047096,45.3346756 L252.503655,44.3740492 L252.503655,44 L238.880532,44 L238.880532,44.3740492 L240.751318,45.0158837 C241.605157,45.3346756 242.620686,45.7087248 242.620686,46.3491424 C242.620686,47.095824 241.925701,47.5761372 240.697422,48.696868 L226.004873,61.7191648 L226.004873,50.1378076 C226.004873,46.6155108 227.074299,46.0289336 229.689712,45.1745712 L232.09521,44.3740492 L232.09521,44 L215,44 L215,44.3740492 L217.40408,45.1745712 C220.02233,46.0289336 221.090337,46.6155108 221.090337,50.1378076 L221.090337,76.3949292 Z" id="Fill-20" fill="#F1F2E9"></path>
                    <path d="M261.019538,76.3949292 C261.019538,79.3844892 259.963946,79.9710664 257.374732,80.8254288 L255,81.6259508 L255,82 L287,82 L287,72.8726324 L286.629912,72.8726324 L285.362641,75.4881432 C283.673413,79.01044 283.039777,79.5445936 280.188417,79.5445936 L266.036755,79.5445936 C265.930214,78.209918 265.878346,76.9290828 265.878346,75.5944072 L265.878346,63.694258 L277.864152,63.694258 C279.343102,63.694258 279.765059,64.3870992 280.663644,66.1482476 L282.139791,69.1378076 L282.511281,69.1378076 L282.511281,55.795302 L282.139791,55.795302 L280.663644,58.7834452 C279.765059,60.5445936 279.343102,61.2388516 277.864152,61.2388516 L265.878346,61.2388516 L265.878346,50.0839672 C265.878346,48.7507084 265.930214,47.4698732 266.036755,46.1351976 L280.503833,46.1351976 C282.616419,46.1351976 282.986507,46.98956 283.77715,48.590604 L285.679459,52.3792692 L286.048145,52.3792692 L286.048145,44 L255,44 L255,44.3740492 L257.374732,45.1745712 C259.963946,46.0289336 261.019538,46.6155108 261.019538,50.1378076 L261.019538,76.3949292 Z" id="Fill-22" fill="#F1F2E9"></path>
                    <path d="M321,72.1801573 L320.622021,72.1801573 L318.365556,76.7677566 C317.237324,79.0091346 316.594046,79.5432683 314.444557,79.5432683 L301.229548,79.5432683 C301.11972,78.2100593 301.066946,76.9292718 301.066946,75.5932292 L301.066946,50.1375788 C301.066946,46.6168301 302.140977,46.0302748 304.775421,45.1745274 L307.191635,44.3754521 L307.191635,44 L290,44 L290,44.3754521 L292.417641,45.1745274 C295.050658,46.0302748 296.124689,46.6168301 296.124689,50.1375788 L296.124689,76.3951381 C296.124689,79.3845867 295.050658,79.971142 292.417641,80.8254726 L290,81.6259647 L290,82 L321,82 L321,72.1801573 Z" id="Fill-24" fill="#F1F2E9"></path>
                    <path d="M324.25,79 C324.640278,79.254862 324.7,79.5438044 324.7,80.0550102 C324.7,81.4952769 322.719444,85.3997036 322,86.5851084 L322.511111,87 L326.35,82.4554547 C327.670833,80.887757 328,80.3439526 328,79.703834 C328,79.4474903 327.85,79 327.190278,79 L324.25,79 Z" id="Fill-26" fill="#F1F2E9"></path>
                    <path d="M355,81.0007852 C355,82.1519435 355.881914,83 357.000785,83 C358.085131,83 359,82.1519435 359,81.0007852 C359,79.915587 358.085131,79 357.000785,79 C355.881914,79 355,79.915587 355,81.0007852" id="Fill-28" fill="#F1F2E9"></path>
                    <path d="M380,81.0007852 C380,82.1519435 380.881569,83 382,83 C383.08549,83 384,82.1519435 384,81.0007852 C384,79.915587 383.08549,79 382,79 C380.881569,79 380,79.915587 380,81.0007852" id="Fill-30" fill="#F1F2E9"></path>
                    <path d="M386,83 L386.213156,83 C386.426313,82.5364408 386.791925,82.0398727 387.28035,82.0398727 C388.377188,82.0398727 389.505082,83 392.981931,83 C398.255788,83 401,79.8067515 401,76.7397978 C401,69.2998877 389.231225,71.098153 389.231225,65.5497941 C389.231225,62.6966804 391.700169,61.239985 394.170525,61.239985 C397.493506,61.239985 398.652456,62.7282541 399.84105,65.7019219 L400.054207,65.7019219 L400.054207,60 L399.872106,60 C399.71965,60.589854 399.170525,60.8682766 398.804912,60.8682766 C398.531056,60.8682766 397.950875,60.6515662 397.096838,60.4334207 C396.273857,60.2181455 395.205251,60 393.896669,60 C390.177019,60 386.426313,62.2015475 386.426313,66.1382129 C386.426313,73.5149757 398.011575,71.2832897 398.011575,77.2952078 C398.011575,79.7450393 396.1214,81.7614501 392.614907,81.7614501 C389.352626,81.7614501 387.585263,80.2731811 386.213156,76.80151 L386,76.80151 L386,83 Z" id="Fill-32" fill="#F1F2E9"></path>
                    <path d="M401,81.0007852 C401,82.1519435 401.882261,83 403,83 C404.084772,83 405,82.1519435 405,81.0007852 C405,79.915587 404.084772,79 403,79 C401.882261,79 401,79.915587 401,81.0007852" id="Fill-34" fill="#F1F2E9"></path>
                    <path d="M138.559206,93.2598417 C138.559206,92.8217801 138.579003,92.4017972 138.611526,91.9623449 L140.200937,91.9623449 C143.519752,91.9623449 145.403289,93.7660462 145.403289,97.3414634 C145.403289,100.371737 144.089621,102.930573 140.756666,102.930573 L138.611526,102.930573 C138.579003,102.493902 138.559206,102.072529 138.559206,101.633077 L138.559206,93.2598417 Z M136.969795,101.897304 C136.969795,102.879119 136.624763,103.071031 135.777737,103.351947 L135,103.613393 L135,103.735772 L140.704345,103.735772 C145.421672,103.735772 147.442373,100.407895 147.442373,97.5 C147.442373,95.1511553 146.304049,91.2614463 140.806158,91.2614463 L135,91.2614463 L135,91.3838254 L135.777737,91.6480531 C136.624763,91.9275781 136.969795,92.1208815 136.969795,93.2765297 L136.969795,101.897304 Z M153.594977,101.897304 C153.594977,102.879119 153.249945,103.071031 152.401505,103.351947 L151.623768,103.613393 L151.623768,103.735772 L157.154183,103.735772 L157.154183,103.613393 L156.377861,103.351947 C155.529421,103.071031 155.184388,102.879119 155.184388,101.897304 L155.184388,93.2765297 C155.184388,92.1208815 155.529421,91.9275781 156.377861,91.6480531 L157.154183,91.3838254 L157.154183,91.2614463 L151.623768,91.2614463 L151.623768,91.3838254 L152.401505,91.6480531 C153.249945,91.9275781 153.594977,92.1208815 153.594977,93.2765297 L153.594977,101.897304 Z M161.715962,104 L161.837572,104 C161.957768,103.735772 162.165636,103.457638 162.444207,103.457638 C163.064982,103.457638 163.70414,104 165.673935,104 C168.663272,104 170.22016,102.194908 170.22016,100.46074 C170.22016,96.2539581 163.548593,97.2719298 163.548593,94.1359649 C163.548593,92.5241763 164.948519,91.7008986 166.348445,91.7008986 C168.231982,91.7008986 168.888109,92.5394737 169.562619,94.2221866 L169.684228,94.2221866 L169.684228,91 L169.579587,91 C169.493329,91.3309799 169.182235,91.4895165 168.974367,91.4895165 C168.81882,91.4895165 168.490756,91.3671374 168.007145,91.2447582 C167.540503,91.1223791 166.935283,91 166.192898,91 C164.085938,91 161.957768,92.2432606 161.957768,94.4669448 C161.957768,98.6375695 168.526108,97.3776209 168.526108,100.775032 C168.526108,102.158751 167.455659,103.299101 165.466067,103.299101 C163.619296,103.299101 162.616723,102.456354 161.837572,100.494116 L161.715962,100.494116 L161.715962,104 Z M179.152819,101.897304 C179.152819,102.879119 178.807787,103.071031 177.960761,103.351947 L177.183024,103.613393 L177.183024,103.735772 L182.714853,103.735772 L182.714853,103.613393 L181.935702,103.351947 C181.088676,103.071031 180.743644,102.879119 180.743644,101.897304 L180.743644,93.2598417 C180.743644,92.8217801 180.762027,92.4017972 180.794551,91.9623449 L183.423301,91.9623449 C183.974787,91.9623449 184.184069,92.1890244 184.943422,93.9941164 L185.097556,94.3640351 L185.219165,94.3640351 L185.219165,91.2614463 L174.677298,91.2614463 L174.677298,94.3640351 L174.798908,94.3640351 L174.954455,93.9941164 C175.713809,92.1890244 175.921677,91.9623449 176.474577,91.9623449 L179.101913,91.9623449 C179.13585,92.4017972 179.152819,92.8217801 179.152819,93.2598417 L179.152819,101.897304 Z M190.57565,101.897304 C190.57565,102.879119 190.230618,103.071031 189.383592,103.351947 L188.607269,103.613393 L188.607269,103.735772 L194.137684,103.735772 L194.137684,103.613393 L193.358533,103.351947 C192.511507,103.071031 192.166475,102.879119 192.166475,101.897304 L192.166475,93.2765297 C192.166475,92.1208815 192.511507,91.9275781 193.358533,91.6480531 L194.137684,91.3838254 L194.137684,91.2614463 L188.607269,91.2614463 L188.607269,91.3838254 L189.383592,91.6480531 C190.230618,91.9275781 190.57565,92.1208815 190.57565,93.2765297 L190.57565,101.897304 Z M199.597396,101.897304 C199.597396,102.879119 199.250949,103.071031 198.403923,103.351947 L197.626187,103.613393 L197.626187,103.735772 L202.361896,103.735772 L202.361896,103.613393 L201.584159,103.351947 C200.738548,103.071031 200.393515,102.879119 200.393515,101.897304 L200.393515,92.9427685 L200.426039,92.9427685 L208.409859,103.892918 L209.187596,103.892918 L209.187596,93.2765297 C209.187596,92.1208815 209.534043,91.9275781 210.381068,91.6480531 L211.158805,91.3838254 L211.158805,91.2614463 L206.319869,91.2614463 L206.319869,91.3838254 L207.09902,91.6480531 C207.943217,91.9275781 208.291078,92.1208815 208.291078,93.2765297 L208.291078,100.827878 L208.254312,100.827878 L201.376292,91.2614463 L197.626187,91.2614463 L197.626187,91.3838254 L198.403923,91.6480531 C199.250949,91.9275781 199.597396,92.1208815 199.597396,93.2765297 L199.597396,101.897304 Z M225.900451,91 L225.778841,91 C225.743489,91.1919127 225.554004,91.4728284 225.346137,91.4728284 C225.192003,91.4728284 224.810205,91.3504493 224.257305,91.2252888 C223.704405,91.1223791 222.978989,91 222.133377,91 C218.190959,91 215.3402,93.7132007 215.3402,97.4276851 C215.3402,101.284018 217.881278,104 222.133377,104 C223.756726,104 224.827174,103.580017 225.293816,103.580017 C225.691169,103.580017 225.84813,103.788618 225.916005,104 L226.037615,104 L226.037615,100.424583 L225.916005,100.424583 L225.812779,100.775032 C225.259878,102.194908 224.395884,103.299101 222.064088,103.299101 C218.79618,103.299101 217.379285,100.741656 217.379285,97.5333761 C217.379285,94.258344 218.79618,91.7008986 222.064088,91.7008986 C224.101758,91.7008986 224.982721,92.4880188 225.778841,94.2388746 L225.900451,94.2388746 L225.900451,91 Z M235.074916,101.897304 C235.074916,102.879119 234.731297,103.071031 233.882857,103.351947 L233.105121,103.613393 L233.105121,103.735772 L238.635536,103.735772 L238.635536,103.613393 L237.859213,103.351947 C237.010773,103.071031 236.665741,102.879119 236.665741,101.897304 L236.665741,93.2598417 C236.665741,92.8217801 236.684123,92.4017972 236.716647,91.9623449 L239.343983,91.9623449 C239.896883,91.9623449 240.106165,92.1890244 240.865519,93.9941164 L241.019652,94.3640351 L241.141262,94.3640351 L241.141262,91.2614463 L230.599394,91.2614463 L230.599394,94.3640351 L230.71959,94.3640351 L230.875137,93.9941164 C231.635905,92.1890244 231.845187,91.9623449 232.396673,91.9623449 L235.024009,91.9623449 C235.057947,92.4017972 235.074916,92.8217801 235.074916,93.2598417 L235.074916,101.897304 Z M246.497746,101.897304 C246.497746,102.879119 246.152714,103.071031 245.305688,103.351947 L244.527952,103.613393 L244.527952,103.735772 L250.059781,103.735772 L250.059781,103.613393 L249.28063,103.351947 C248.433604,103.071031 248.088572,102.879119 248.088572,101.897304 L248.088572,93.2765297 C248.088572,92.1208815 248.433604,91.9275781 249.28063,91.6480531 L250.059781,91.3838254 L250.059781,91.2614463 L244.527952,91.2614463 L244.527952,91.3838254 L245.305688,91.6480531 C246.152714,91.9275781 246.497746,92.1208815 246.497746,93.2765297 L246.497746,101.897304 Z M259.406762,103.892918 L259.995013,103.892918 L264.71234,92.7146983 C264.971114,92.084724 265.403818,91.6285837 265.680976,91.5062045 L265.973687,91.3838254 L265.973687,91.2614463 L262.068035,91.2614463 L262.068035,91.3838254 L262.742545,91.5952075 C263.417055,91.8038083 263.675829,92.1890244 263.675829,92.4880188 C263.675829,92.7327771 263.503313,93.2598417 263.226156,93.9259735 L260.135006,101.459243 L260.09824,101.459243 L257.350709,94.5031023 C256.970325,93.537976 256.676199,92.7856226 256.676199,92.4017972 C256.676199,92.0680359 256.885481,91.8761232 258.042187,91.4366709 L258.18218,91.3838254 L258.18218,91.2614463 L253.375767,91.2614463 L253.375767,91.3838254 L253.756151,91.5590501 C254.550856,91.9275781 254.723373,92.3489516 254.965178,92.9260804 L259.406762,103.892918 Z M271.333,101.897304 C271.333,102.879119 270.98514,103.071031 270.138114,103.351947 L269.361791,103.613393 L269.361791,103.735772 L279.834369,103.735772 L279.834369,100.741656 L279.71276,100.741656 L279.298438,101.59831 C278.746952,102.755349 278.53767,102.930573 277.604386,102.930573 L272.974732,102.930573 C272.937966,102.493902 272.922411,102.072529 272.922411,101.633077 L272.922411,97.7280702 L276.843618,97.7280702 C277.327229,97.7280702 277.465808,97.9547497 277.759933,98.5332691 L278.243544,99.5136928 L278.365154,99.5136928 L278.365154,95.1344673 L278.243544,95.1344673 L277.759933,96.1162816 C277.465808,96.6934104 277.327229,96.9214805 276.843618,96.9214805 L272.922411,96.9214805 L272.922411,93.2598417 C272.922411,92.8217801 272.937966,92.4017972 272.974732,91.9623449 L277.707613,91.9623449 C278.400506,91.9623449 278.522115,92.2432606 278.779476,92.7675439 L279.403079,94.0135858 L279.524689,94.0135858 L279.524689,91.2614463 L269.361791,91.2614463 L269.361791,91.3838254 L270.138114,91.6480531 C270.98514,91.9275781 271.333,92.1208815 271.333,93.2765297 L271.333,101.897304 Z M295.766659,93.2598417 C295.766659,92.8217801 295.785042,92.4017972 295.818979,91.9623449 L297.40839,91.9623449 C300.728619,91.9623449 302.612156,93.7660462 302.612156,97.3414634 C302.612156,100.371737 301.297074,102.930573 297.962705,102.930573 L295.818979,102.930573 C295.785042,102.493902 295.766659,102.072529 295.766659,101.633077 L295.766659,93.2598417 Z M294.177248,101.897304 C294.177248,102.879119 293.832216,103.071031 292.98519,103.351947 L292.207453,103.613393 L292.207453,103.735772 L297.910384,103.735772 C302.627711,103.735772 304.649826,100.407895 304.649826,97.5 C304.649826,95.1511553 303.508674,91.2614463 298.015025,91.2614463 L292.207453,91.2614463 L292.207453,91.3838254 L292.98519,91.6480531 C293.832216,91.9275781 294.177248,92.1208815 294.177248,93.2765297 L294.177248,101.897304 Z M310.870306,101.897304 C310.870306,102.879119 310.525273,103.071031 309.679661,103.351947 L308.900511,103.613393 L308.900511,103.735772 L319.373089,103.735772 L319.373089,100.741656 L319.252893,100.741656 L318.837157,101.59831 C318.285671,102.755349 318.077804,102.930573 317.14452,102.930573 L312.513451,102.930573 C312.478099,102.493902 312.461131,102.072529 312.461131,101.633077 L312.461131,97.7280702 L316.383752,97.7280702 C316.868777,97.7280702 317.005941,97.9547497 317.300067,98.5332691 L317.783678,99.5136928 L317.903873,99.5136928 L317.903873,95.1344673 L317.783678,95.1344673 L317.300067,96.1162816 C317.005941,96.6934104 316.868777,96.9214805 316.383752,96.9214805 L312.461131,96.9214805 L312.461131,93.2598417 C312.461131,92.8217801 312.478099,92.4017972 312.513451,91.9623449 L317.247746,91.9623449 C317.939225,91.9623449 318.059421,92.2432606 318.319609,92.7675439 L318.941798,94.0135858 L319.061994,94.0135858 L319.061994,91.2614463 L308.900511,91.2614463 L308.900511,91.3838254 L309.679661,91.6480531 C310.525273,91.9275781 310.870306,92.1208815 310.870306,93.2765297 L310.870306,101.897304 Z M325.906077,101.897304 C325.906077,102.879119 325.559631,103.071031 324.714019,103.351947 L323.936282,103.613393 L323.936282,103.735772 L328.670577,103.735772 L328.670577,103.613393 L327.894255,103.351947 C327.045815,103.071031 326.700782,102.879119 326.700782,101.897304 L326.700782,92.9427685 L326.73472,92.9427685 L334.719955,103.892918 L335.497692,103.892918 L335.497692,93.2765297 C335.497692,92.1208815 335.844138,91.9275781 336.68975,91.6480531 L337.467486,91.3838254 L337.467486,91.2614463 L332.62855,91.2614463 L332.62855,91.3838254 L333.406287,91.6480531 C334.253313,91.9275781 334.599759,92.1208815 334.599759,93.2765297 L334.599759,100.827878 L334.562993,100.827878 L327.684973,91.2614463 L323.936282,91.2614463 L323.936282,91.3838254 L324.714019,91.6480531 C325.559631,91.9275781 325.906077,92.1208815 325.906077,93.2765297 L325.906077,101.897304 Z M345.331111,101.897304 C345.331111,102.879119 344.984665,103.071031 344.137639,103.351947 L343.359902,103.613393 L343.359902,103.735772 L348.888903,103.735772 L348.888903,103.613393 L348.112581,103.351947 C347.265555,103.071031 346.920522,102.879119 346.920522,101.897304 L346.920522,93.2598417 C346.920522,92.8217801 346.936077,92.4017972 346.972843,91.9623449 L349.598765,91.9623449 C350.151665,91.9623449 350.358119,92.1890244 351.118887,93.9941164 L351.275848,94.3640351 L351.397458,94.3640351 L351.397458,91.2614463 L340.85559,91.2614463 L340.85559,94.3640351 L340.975786,94.3640351 L341.129919,93.9941164 C341.890687,92.1890244 342.098555,91.9623449 342.651455,91.9623449 L345.277377,91.9623449 C345.312729,92.4017972 345.331111,92.8217801 345.331111,93.2598417 L345.331111,101.897304 Z M356.753942,101.897304 C356.753942,102.879119 356.407496,103.071031 355.56047,103.351947 L354.782733,103.613393 L354.782733,103.735772 L360.311734,103.735772 L360.311734,103.613393 L359.535412,103.351947 C358.688386,103.071031 358.343353,102.879119 358.343353,101.897304 L358.343353,93.2765297 C358.343353,92.1208815 358.688386,91.9275781 359.535412,91.6480531 L360.311734,91.3838254 L360.311734,91.2614463 L354.782733,91.2614463 L354.782733,91.3838254 L355.56047,91.6480531 C356.407496,91.9275781 356.753942,92.1208815 356.753942,93.2765297 L356.753942,101.897304 Z M364.874928,104 L364.995123,104 C365.116733,103.735772 365.323187,103.457638 365.601758,103.457638 C366.222533,103.457638 366.861691,104 368.8329,104 C371.822237,104 373.377711,102.194908 373.377711,100.46074 C373.377711,96.2539581 366.706144,97.2719298 366.706144,94.1359649 C366.706144,92.5241763 368.10607,91.7008986 369.505996,91.7008986 C371.389533,91.7008986 372.04566,92.5394737 372.721584,94.2221866 L372.843193,94.2221866 L372.843193,91 L372.737138,91 C372.65088,91.3309799 372.339786,91.4895165 372.134746,91.4895165 C371.977785,91.4895165 371.648307,91.3671374 371.164696,91.2447582 C370.698054,91.1223791 370.092834,91 369.350449,91 C367.243489,91 365.116733,92.2432606 365.116733,94.4669448 C365.116733,98.6375695 371.683659,97.3776209 371.683659,100.775032 C371.683659,102.158751 370.61321,103.299101 368.625032,103.299101 C366.776847,103.299101 365.774274,102.456354 364.995123,100.494116 L364.874928,100.494116 L364.874928,104 Z M382.311784,101.897304 C382.311784,102.879119 381.965338,103.071031 381.118312,103.351947 L380.340575,103.613393 L380.340575,103.735772 L385.872404,103.735772 L385.872404,103.613393 L385.094668,103.351947 C384.246227,103.071031 383.901195,102.879119 383.901195,101.897304 L383.901195,93.2598417 C383.901195,92.8217801 383.919578,92.4017972 383.953516,91.9623449 L386.579438,91.9623449 C387.132338,91.9623449 387.34162,92.1890244 388.102387,93.9941164 L388.256521,94.3640351 L388.376716,94.3640351 L388.376716,91.2614463 L377.834849,91.2614463 L377.834849,94.3640351 L377.956459,94.3640351 L378.112006,93.9941164 C378.872774,92.1890244 379.079228,91.9623449 379.632128,91.9623449 L382.259464,91.9623449 C382.293401,92.4017972 382.311784,92.8217801 382.311784,93.2598417 L382.311784,101.897304 Z M393.803904,101.897304 C393.803904,102.879119 393.457458,103.071031 392.610432,103.351947 L391.832695,103.613393 L391.832695,103.735772 L397.36311,103.735772 L397.36311,103.613393 L396.586788,103.351947 C395.738348,103.071031 395.393315,102.879119 395.393315,101.897304 L395.393315,97.7280702 L397.4324,97.7280702 C398.521231,97.7280702 399.574711,97.8671374 399.868837,99.584617 L400.387799,102.616282 C400.526378,103.457638 400.612636,103.735772 401.216442,103.735772 L403.532683,103.735772 L403.532683,103.613393 L403.101393,103.474326 C402.77333,103.370026 402.374563,103.087719 402.271336,102.562045 L401.666115,99.5665383 C401.407341,98.305199 400.698894,97.5695336 398.83374,97.3053059 L398.83374,97.2190843 C400.526378,96.868635 402.134171,96.2205819 402.134171,94.1888104 C402.134171,91.7342747 399.868837,91.2614463 397.899042,91.2614463 L391.832695,91.2614463 L391.832695,91.3838254 L392.610432,91.6480531 C393.457458,91.9275781 393.803904,92.1208815 393.803904,93.2765297 L393.803904,101.897304 Z M395.393315,96.9214805 L395.393315,93.2598417 C395.393315,92.8217801 395.411698,92.4017972 395.445636,91.9623449 L396.862531,91.9623449 C398.676778,91.9623449 400.232252,92.3823278 400.232252,94.3111896 C400.232252,95.8353659 399.14342,96.9214805 397.537041,96.9214805 L395.393315,96.9214805 Z M411.502363,101.897304 C411.502363,102.879119 411.157331,103.071031 410.311719,103.351947 L409.532569,103.613393 L409.532569,103.735772 L415.062983,103.735772 L415.062983,103.613393 L414.285247,103.351947 C413.439635,103.071031 413.093188,102.879119 413.093188,101.897304 L413.093188,98.9546427 L416.168784,93.1541506 C416.583105,92.364249 416.861676,91.9623449 417.516389,91.6285837 L418,91.3838254 L418,91.2614463 L413.887894,91.2614463 L413.887894,91.3838254 L414.423825,91.5952075 C414.90885,91.7704322 415.460336,92.0137997 415.460336,92.3823278 C415.460336,92.7856226 415.132273,93.3460633 414.978139,93.626979 L412.746742,97.7614463 L410.171727,93.2250749 C410.017593,92.9608472 409.809726,92.5575524 409.809726,92.2961061 C409.809726,91.9790329 410.327274,91.7704322 410.74301,91.5952075 L411.261972,91.3838254 L411.261972,91.2614463 L406.301426,91.2614463 L406.301426,91.3838254 L406.888264,91.6814292 C407.494898,91.9985024 407.667415,92.1890244 408.375862,93.4350663 L411.502363,98.9546427 L411.502363,101.897304 Z" id="Fill-36" fill="#F1F2E9"></path>
                </g>
            </g>
        </g>
    </g>
</svg>