<svg id="6dbed509-eddb-49b8-8fb2-54722edd88d9" data-name="Layer 1" xmlns="http://www.w3.org/2000/svg" viewBox="0 0 24 30"><defs><style></style></defs><title>Health History Form</title><g id="0de0f627-98f3-4009-8f25-52441777bbc0" data-name="Page-1"><g id="7e74bf51-4f6e-460b-93e1-167a5c5a5af1" data-name="Treatments---Cosmetic"><g id="0055868e-91c2-441f-9da9-0f8ddd7b4ee5" data-name="Footer"><g id="c2a3df87-0ed6-4862-8046-f49be1ba5b1d" data-name="Group-4"><g id="6ca51670-dc4c-4af6-b234-59dc7c8ca646" data-name="icons"><g id="b1c74e31-f4bb-4666-a40a-66607752352c" data-name="PDFs"><path id="1b1f4b47-6c47-4684-82e2-8f4994572e71" data-name="Fill-1" d="M5.83,21.43a1,1,0,1,0,.1,2h7a1,1,0,1,0,0-2H5.83Zm0-3.3a1,1,0,1,0,.1,2H17.14a1,1,0,1,0,0-2H5.83Zm0-3.3a1,1,0,0,0,.1,2H17.14a1,1,0,1,0,0-2H5.83Zm0-3.3a1,1,0,0,0,.1,2h7a1,1,0,1,0,0-2H5.83ZM17.47,3.05,20,5.61H17.47ZM.89,0A1,1,0,0,0,0,1V28.68a1,1,0,0,0,1,1h17.8a1,1,0,1,0,0-2H2V2H15.49V6.59a1,1,0,0,0,1,1H21.1v21.1a1,1,0,0,0,2,0V6.27a1,1,0,0,0-.29-.7L17.51.29a1,1,0,0,0-.7-.29H.89Z"/></g></g></g></g></g></g></svg>
