<svg id="078f8826-1db2-4a3b-9f16-902b47fce2dc" data-name="Layer 1" xmlns="http://www.w3.org/2000/svg" viewBox="0 0 50 50"><title>phone-01</title><path d="M48.63,36.09c-2.7-2.14-5.52-4.25-8.26-6.33a5,5,0,0,0-3.91-.63A5.6,5.6,0,0,0,34.06,31c-2,2.2-3.75,2.75-5.43,2.59a8.22,8.22,0,0,1-4.83-2.64L19.1,26.24a8.22,8.22,0,0,1-2.64-4.83c-.16-1.69.4-3.47,2.59-5.43a5.6,5.6,0,0,0,1.85-2.4,5,5,0,0,0-.63-3.91C18.2,6.92,16.09,4.1,13.95,1.4A4.33,4.33,0,0,0,9.64.2,8.11,8.11,0,0,0,6.46,2.33C2.52,6.12-.86,11.29.2,17.65c.89,5.14,4.49,10.11,10,15.63l6.56,6.56c5.51,5.51,10.49,9.11,15.63,10,5.32.81,10.74-1.5,15.32-6.27a8.11,8.11,0,0,0,2.12-3.18A4.33,4.33,0,0,0,48.63,36.09Z"/></svg>